HIERARCHY
ROOT hip
{
	OFFSET 0.000000 0.000000 0.000000 
	CHANNELS 6 Xposition Yposition Zposition Xrotation Zrotation Yrotation
	JOINT abdomen
	{
		OFFSET 0.000000 3.402643 0.000000 
		CHANNELS 3 Xrotation Zrotation Yrotation
		JOINT chest
		{
			OFFSET 0.000000 8.438565 -0.680529 
			CHANNELS 3 Xrotation Zrotation Yrotation
			JOINT neck
			{
				OFFSET 0.000000 10.207942 -0.272212 
				CHANNELS 3 Xrotation Zrotation Yrotation
				JOINT head
				{
					OFFSET 0.000000 3.130431 0.000000 
					CHANNELS 3 Xrotation Zrotation Yrotation
					End Site
					{
						OFFSET 0.000000 3.130435 0.000000 
					}
				}
			}
			JOINT lCollar
			{
				OFFSET 3.470700 6.669187 -0.816635 
				CHANNELS 3 Yrotation Zrotation Xrotation
				JOINT lShldr
				{
					OFFSET 3.198488 0.000000 0.000000 
					CHANNELS 3 Zrotation Yrotation Xrotation
					JOINT lForeArm
					{
						OFFSET 10.139888 0.000000 0.000000 
						CHANNELS 3 Yrotation Zrotation Xrotation
						JOINT lHand
						{
							OFFSET 8.370511 0.000000 0.000000 
							CHANNELS 3 Zrotation Yrotation Xrotation
							End Site
							{
								OFFSET 4.083176 0.000000 0.000000 
							}
						}
					}
				}
			}
			JOINT rCollar
			{
				OFFSET -3.470700 6.669187 -0.816635 
				CHANNELS 3 Yrotation Zrotation Xrotation
				JOINT rShldr
				{
					OFFSET -3.198488 0.000000 0.000000 
					CHANNELS 3 Zrotation Yrotation Xrotation
					JOINT rForeArm
					{
						OFFSET -10.139888 0.000000 0.000000 
						CHANNELS 3 Yrotation Zrotation Xrotation
						JOINT rHand
						{
							OFFSET -8.370511 0.000000 0.000000 
							CHANNELS 3 Zrotation Yrotation Xrotation
							End Site
							{
								OFFSET -4.083176 0.000000 0.000000 
							}
						}
					}
				}
			}
		}
	}
	JOINT lThigh
	{
		OFFSET 5.308129 -1.633274 1.361059 
		CHANNELS 3 Xrotation Zrotation Yrotation
		JOINT lShin
		{
			OFFSET -2.041588 -20.007561 0.000000 
			CHANNELS 3 Xrotation Zrotation Yrotation
			JOINT lFoot
			{
				OFFSET 0.000000 -19.190928 -1.224953 
				CHANNELS 3 Xrotation Yrotation Zrotation
				End Site
				{
					OFFSET 0.000000 -2.449906 4.627600 
				}
			}
		}
	}
	JOINT rThigh
	{
		OFFSET -5.308129 -1.633274 1.361059 
		CHANNELS 3 Xrotation Zrotation Yrotation
		JOINT rShin
		{
			OFFSET 2.041588 -20.007561 0.000000 
			CHANNELS 3 Xrotation Zrotation Yrotation
			JOINT rFoot
			{
				OFFSET 0.000000 -19.190928 -1.224953 
				CHANNELS 3 Xrotation Yrotation Zrotation
				End Site
				{
					OFFSET 0.000000 -2.449906 4.627600 
				}
			}
		}
	}
}
MOTION
Frames: 11
Frame Time: 0.016667
0.117186 44.802639 0.471819 -6.751440 -1.813520 2.489940 -19.362301 4.361020 -0.578433 14.445200 4.350230 0.033321 21.713940 -13.620404 -7.887710 17.627399 8.119380 0.156568 2.000000 -2.000000 0.000000 87.019402 168.091995 -6.512600 36.396900 -0.324895 0.081182 0.048660 -0.035714 -149.783005 -2.000000 2.000000 0.000000 84.500298 -7.726170 168.281998 -30.342100 0.332838 0.069067 -0.056651 0.026783 -146.531006 -11.495180 2.568703 3.704067 63.994366 1.142578 3.988063 -7.634078 -0.514351 -0.321034 -11.693882 7.925152 1.500902 31.506208 -2.623952 -2.375164 -6.313803 5.957944 0.864002 
0.070557 44.772861 0.791721 -6.850220 -2.074940 2.006860 -19.255199 4.435680 -0.378825 14.564800 4.088940 0.157526 21.442635 -13.650244 -7.771153 17.555000 8.026920 0.171744 2.000000 -2.000000 0.000000 86.902199 168.130005 -6.326960 36.777699 -0.324354 0.081912 0.049213 -0.038056 -150.641998 -2.000000 2.000000 0.000000 84.266197 -7.073930 169.162994 -31.260099 0.331716 0.070948 -0.056837 0.027861 -146.921997 -11.954961 2.722533 4.373564 62.504570 1.231447 3.953260 -10.026806 -0.334951 -0.518307 -11.286438 8.324194 1.670369 31.547131 -2.610887 -2.390401 -6.874401 6.149909 0.949628 
0.063773 44.741936 1.102141 -6.850600 -2.162200 1.656000 -19.333599 4.472540 -0.253096 14.488300 3.835870 0.227544 21.128452 -13.701537 -7.652814 17.413900 7.946280 0.142256 2.000000 -2.000000 0.000000 86.745796 167.914993 -6.141920 37.187901 -0.323765 0.082694 0.049808 -0.040416 -151.511993 -2.000000 2.000000 0.000000 83.944199 -6.822150 170.072006 -32.392899 0.330291 0.073245 -0.057131 0.029476 -147.507996 -12.223907 2.454207 4.553428 60.110535 1.386109 3.847619 -12.332523 0.181387 -0.637526 -11.012158 8.419785 1.648552 31.861032 -2.614575 -2.405507 -7.363110 6.421695 1.048534 
0.056987 44.710861 1.412551 -6.860780 -2.249420 1.305520 -19.411501 4.496770 -0.133249 14.411700 3.592580 0.306981 20.813797 -13.751966 -7.535016 17.263100 7.865830 0.110485 2.000000 -2.000000 0.000000 86.579597 167.690002 -5.966660 37.588299 -0.323185 0.083453 0.050432 -0.042740 -152.371002 -2.000000 2.000000 0.000000 83.612503 -6.570390 170.979996 -33.535500 0.328808 0.075533 -0.057446 0.031114 -148.102997 -12.451784 2.196924 4.750887 57.580864 1.525826 3.766683 -14.564611 0.663141 -0.733324 -10.753783 8.519928 1.614416 32.127125 -2.601943 -2.417018 -7.797331 6.667347 1.135340 
0.042749 44.651176 1.702552 -6.723690 -2.191870 1.097990 -19.538099 4.483160 -0.086651 14.393000 3.466220 0.338890 19.888746 -13.861648 -7.327233 16.849100 7.574680 -0.014431 2.000000 -2.000000 0.000000 86.403702 167.533997 -5.976790 37.881199 -0.322757 0.084005 0.050645 -0.043504 -152.654007 -2.000000 2.000000 0.000000 83.290398 -6.269470 171.753006 -34.648800 0.327319 0.077733 -0.057744 0.032588 -148.639999 -12.606712 1.638992 4.530568 54.724010 1.723478 3.636456 -15.915886 1.185966 -0.717691 -10.841012 8.508830 1.689206 32.697701 -2.591784 -2.453521 -8.214570 6.720698 1.197909 
0.028512 44.591492 1.992564 -6.586580 -2.124570 0.899387 -19.664400 4.460380 -0.036647 14.374200 3.349590 0.369837 18.959934 -13.970946 -7.103455 16.435699 7.272640 -0.147012 2.000000 -2.000000 0.000000 86.237602 167.378006 -5.986920 38.164501 -0.322341 0.084538 0.050855 -0.044241 -152.927994 -2.000000 2.000000 0.000000 -97.031700 -174.041000 -7.484910 -35.771900 0.325774 0.079922 -0.058057 0.034059 -149.177994 -12.747121 1.082342 4.281359 51.799576 1.872257 3.500505 -17.208742 1.703903 -0.669646 -10.820183 8.474235 1.762562 33.142010 -2.554102 -2.464300 -8.624112 6.765341 1.245514 
0.010161 44.528198 2.292024 -6.596190 -2.085720 0.807378 -19.586000 4.445150 -0.076992 14.618800 3.331680 0.356825 18.935946 -14.077370 -6.955163 16.474501 7.252400 -0.069354 2.000000 -2.000000 0.000000 86.052200 167.602997 -6.211010 38.135201 -0.322384 0.084483 0.050750 -0.043873 -152.791000 -2.000000 2.000000 0.000000 -97.285599 -174.597000 -6.956250 -36.777699 0.324354 0.081857 -0.058353 0.035394 -149.666000 -12.550056 0.594254 3.940511 49.047970 2.049270 3.341036 -18.646019 2.047096 -0.662545 -10.744081 8.473530 1.743479 33.781204 -2.550968 -2.520564 -9.441048 6.783289 1.328553 
-0.008190 44.464909 2.591484 -6.615570 -2.046840 0.705938 -19.517700 4.435450 -0.130403 14.863400 3.323410 0.343253 18.906134 -14.205965 -6.809597 16.513300 7.232160 -0.000252 2.000000 -2.000000 0.000000 85.876602 167.828003 -6.425320 38.096100 -0.322442 0.084409 0.050645 -0.043504 -152.654007 -2.000000 2.000000 0.000000 -97.539398 -175.151993 -6.437350 -37.783600 0.322900 0.083767 -0.058666 0.036753 -150.164001 -12.365884 0.113616 3.559797 46.220257 2.181956 3.211659 -19.985929 2.365966 -0.651079 -10.639630 8.476142 1.730034 34.332634 -2.529455 -2.553034 -10.205760 6.786501 1.381668 
-0.049172 44.400841 2.799490 -6.528200 -2.183030 0.718320 -19.636700 4.474050 -0.194689 14.755700 3.342210 0.314958 18.888645 -14.584754 -6.672290 16.627300 7.095210 0.072793 2.000000 -2.000000 0.000000 85.847397 167.973999 -6.395690 37.939800 -0.322671 0.084116 0.050586 -0.043294 -152.576004 -2.000000 2.000000 0.000000 -97.685898 -175.453995 -6.192490 -38.428101 0.321951 0.084977 -0.058773 0.037205 -150.330002 -12.462974 -0.027019 3.338983 43.979195 2.295049 3.082693 -21.034571 3.355369 -0.331627 -10.668232 8.819980 2.093082 34.706799 -2.511623 -2.570225 -10.679012 6.246520 1.320570 
-0.090153 44.336773 3.007495 -6.440800 -2.309570 0.719425 -19.755699 4.509120 -0.268338 14.657700 3.370770 0.286728 18.857410 -14.979891 -6.532164 16.741600 6.967880 0.147414 2.000000 -2.000000 0.000000 85.818199 168.121002 -6.356280 37.783600 -0.322900 0.083821 0.050527 -0.043083 -152.498001 -2.000000 2.000000 0.000000 -97.832397 -175.766006 -5.957370 -39.082401 0.320974 0.086195 -0.058882 0.037657 -150.496002 -12.530306 -0.170177 3.097015 41.835060 2.406660 2.954801 -22.190954 4.363804 0.005420 -10.715706 9.179391 2.471677 35.083889 -2.476877 -2.630992 -11.145400 5.745059 1.263398 
-0.114983 44.285336 3.265390 -6.537760 -2.134480 0.996343 -19.814199 4.463050 -0.391365 14.657000 3.487340 0.216113 18.868242 -14.808564 -6.447770 16.646099 7.066040 0.166509 2.000000 -2.000000 0.000000 85.837700 168.197998 -6.033840 37.685902 -0.323043 0.083637 0.050447 -0.042793 -152.389999 -2.000000 2.000000 0.000000 -97.949600 -176.029999 -6.005570 -39.697701 0.320042 0.087329 -0.059129 0.038667 -150.867004 -12.317003 -0.574226 3.147822 40.261066 2.478235 2.855467 -21.887669 5.118080 0.301503 -10.511510 9.019069 2.304388 35.534306 -2.483910 -2.644164 -11.763542 5.631790 1.274035 
